<?xml version="1.0" encoding="utf-8"?>
<svg width="48" height="48" viewBox="0 0 48 48" fill="none" xmlns="http://www.w3.org/2000/svg">
  <defs>
    <clipPath id="clip_path_1">
      <rect width="48" height="48" />
    </clipPath>
  </defs>
  <g clip-path="url(#clip_path_1)">
    <rect width="48" height="48" />
    <path id="Shape" d="M11.542 10.529C11.542 11.126 11.606 11.609 11.718 11.964C11.846 12.319 12.005 12.706 12.229 13.125C12.309 13.254 12.341 13.383 12.341 13.496C12.341 13.657 12.245 13.818 12.038 13.98C12.038 13.98 11.032 14.657 11.032 14.657C10.888 14.754 10.745 14.802 10.617 14.802C10.457 14.802 10.298 14.721 10.138 14.576C9.914 14.334 9.723 14.076 9.563 13.818C9.403 13.544 9.244 13.238 9.068 12.867C7.823 14.35 6.258 15.092 4.374 15.092C3.033 15.092 1.963 14.705 1.181 13.931C0.399 13.157 0 12.125 0 10.835C0 9.465 0.479 8.352 1.453 7.514C2.427 6.676 3.72 6.256 5.364 6.256C5.907 6.256 6.466 6.304 7.056 6.385C7.646 6.466 8.253 6.595 8.892 6.74C8.892 6.74 8.892 5.563 8.892 5.563C8.892 4.338 8.637 3.483 8.142 2.983C7.631 2.483 6.769 2.241 5.54 2.241C4.981 2.241 4.407 2.305 3.816 2.451C3.225 2.596 2.651 2.773 2.092 2.999C1.837 3.112 1.645 3.176 1.533 3.209C1.421 3.241 1.341 3.257 1.278 3.257C1.054 3.257 0.943 3.096 0.943 2.757C0.943 2.757 0.943 1.967 0.943 1.967C0.943 1.709 0.975 1.516 1.055 1.403C1.135 1.29 1.279 1.177 1.502 1.064C2.061 0.774001 2.731 0.532001 3.514 0.338001C4.296 0.128001 5.126 0.0320015 6.004 0.0320015C7.904 0.0320015 9.293 0.467002 10.187 1.338C11.065 2.209 11.512 3.531 11.512 5.304C11.512 5.304 11.512 10.528 11.512 10.528L11.542 10.528C11.542 10.528 11.542 10.529 11.542 10.529ZM5.06 12.979C5.587 12.979 6.13 12.882 6.704 12.689C7.279 12.496 7.79 12.141 8.221 11.657C8.476 11.351 8.668 11.012 8.764 10.625C8.86 10.238 8.924 9.77 8.924 9.222C8.924 9.222 8.924 8.545 8.924 8.545C8.461 8.432 7.966 8.335 7.455 8.271C6.944 8.207 6.449 8.174 5.954 8.174C4.884 8.174 4.102 8.384 3.575 8.819C3.048 9.254 2.793 9.867 2.793 10.673C2.793 11.431 2.985 11.995 3.384 12.382C3.767 12.786 4.326 12.979 5.06 12.979C5.06 12.979 5.06 12.979 5.06 12.979ZM17.88 14.721C17.593 14.721 17.401 14.673 17.273 14.56C17.145 14.463 17.034 14.238 16.938 13.931C16.938 13.931 13.186 1.468 13.186 1.468C13.09 1.146 13.042 0.936002 13.042 0.823002C13.042 0.565001 13.17 0.420002 13.425 0.420002C13.425 0.420002 14.99 0.420002 14.99 0.420002C15.293 0.420002 15.501 0.468002 15.613 0.581002C15.741 0.678002 15.836 0.903002 15.932 1.21C15.932 1.21 18.614 11.884 18.614 11.884C18.614 11.884 21.104 1.21 21.104 1.21C21.184 0.888003 21.28 0.678003 21.407 0.581003C21.535 0.484003 21.758 0.420003 22.046 0.420003C22.046 0.420003 23.323 0.420003 23.323 0.420003C23.626 0.420003 23.834 0.468003 23.962 0.581003C24.09 0.678003 24.201 0.903003 24.265 1.21C24.265 1.21 26.787 12.013 26.787 12.013C26.787 12.013 29.549 1.21 29.549 1.21C29.645 0.888004 29.757 0.678004 29.868 0.581004C29.996 0.484004 30.203 0.420004 30.491 0.420004C30.491 0.420004 31.976 0.420004 31.976 0.420004C32.231 0.420004 32.375 0.549004 32.375 0.823004C32.375 0.904004 32.359 0.984004 32.343 1.081C32.327 1.178 32.295 1.307 32.231 1.484C32.231 1.484 28.384 13.947 28.384 13.947C28.288 14.269 28.176 14.479 28.049 14.576C27.922 14.673 27.714 14.737 27.442 14.737C27.442 14.737 26.069 14.737 26.069 14.737C25.766 14.737 25.558 14.689 25.43 14.576C25.302 14.463 25.191 14.254 25.127 13.931C25.127 13.931 22.653 3.531 22.653 3.531C22.653 3.531 20.195 13.915 20.195 13.915C20.115 14.237 20.019 14.447 19.892 14.56C19.764 14.673 19.541 14.721 19.253 14.721C19.253 14.721 17.88 14.721 17.88 14.721C17.88 14.721 17.88 14.721 17.88 14.721ZM38.394 15.156C37.564 15.156 36.734 15.059 35.936 14.866C35.138 14.673 34.515 14.463 34.1 14.221C33.845 14.076 33.669 13.915 33.605 13.77C33.541 13.625 33.509 13.464 33.509 13.319C33.509 13.319 33.509 12.497 33.509 12.497C33.509 12.158 33.637 11.997 33.876 11.997C33.972 11.997 34.068 12.013 34.163 12.045C34.259 12.077 34.402 12.142 34.562 12.206C35.105 12.448 35.695 12.641 36.318 12.77C36.957 12.899 37.579 12.963 38.218 12.963C39.224 12.963 40.006 12.786 40.549 12.431C41.092 12.076 41.379 11.56 41.379 10.899C41.379 10.448 41.235 10.077 40.948 9.77C40.661 9.464 40.118 9.19 39.336 8.932C39.336 8.932 37.021 8.206 37.021 8.206C35.856 7.835 34.994 7.287 34.467 6.561C33.94 5.852 33.669 5.062 33.669 4.223C33.669 3.546 33.813 2.949 34.1 2.433C34.387 1.917 34.771 1.466 35.249 1.111C35.728 0.739998 36.271 0.465998 36.909 0.272998C37.548 0.0810003 38.218 0 38.921 0C39.272 0 39.639 0.0159998 39.991 0.0640001C40.358 0.112 40.693 0.177 41.029 0.241C41.348 0.322001 41.652 0.402 41.939 0.499001C42.226 0.596001 42.45 0.692 42.61 0.789001C42.834 0.918 42.993 1.047 43.089 1.192C43.185 1.321 43.233 1.498 43.233 1.724C43.233 1.724 43.233 2.482 43.233 2.482C43.233 2.821 43.105 2.998 42.866 2.998C42.738 2.998 42.531 2.934 42.259 2.805C41.349 2.386 40.327 2.176 39.194 2.176C38.284 2.176 37.566 2.321 37.071 2.627C36.576 2.933 36.321 3.401 36.321 4.062C36.321 4.513 36.481 4.9 36.8 5.207C37.119 5.513 37.71 5.82 38.556 6.094C38.556 6.094 40.823 6.82 40.823 6.82C41.972 7.191 42.803 7.707 43.297 8.368C43.791 9.029 44.031 9.787 44.031 10.625C44.031 11.318 43.887 11.947 43.616 12.495C43.329 13.043 42.945 13.527 42.451 13.914C41.956 14.317 41.365 14.607 40.679 14.817C39.958 15.043 39.208 15.156 38.394 15.156C38.394 15.156 38.394 15.156 38.394 15.156Z" fill="#FFFFFF" transform="translate(1.985 11)" />
    <path id="Shape" d="M43.3967 4.91951C38.1447 8.83751 30.5137 10.9175 23.9517 10.9175C14.7567 10.9175 6.47071 7.48351 0.212709 1.77551C-0.282291 1.32451 0.164709 0.71151 0.755709 1.06651C7.52471 5.03251 15.8737 7.43551 24.5107 7.43551C30.3377 7.43551 36.7397 6.21051 42.6297 3.69451C43.5087 3.29151 44.2587 4.27451 43.3967 4.91951C43.3967 4.91951 43.3967 4.91951 43.3967 4.91951ZM45.5837 2.40451C44.9127 1.53351 41.1457 1.98551 39.4377 2.19451C38.9267 2.25851 38.8467 1.80751 39.3097 1.46851C42.3107 -0.659492 47.2437 -0.047493 47.8187 0.662508C48.3937 1.38851 47.6587 6.37051 44.8497 8.75651C44.4187 9.12751 44.0037 8.93351 44.1947 8.45051C44.8337 6.85451 46.2547 3.25851 45.5837 2.40451C45.5837 2.40451 45.5837 2.40451 45.5837 2.40451Z" fill="#FF9900" transform="translate(-0.001 29.072)" />
  </g>
</svg>