<?xml version="1.0" encoding="utf-8"?>
<svg width="70" height="70" viewBox="0 0 70 70" fill="none" xmlns="http://www.w3.org/2000/svg">
  <g>
    <rect width="70" height="70" />
    <path id="Path" d="M15.943 2.15542C14.2469 0.816666 11.9676 0.00145721 9.47963 0C6.99171 0.00145721 4.71088 0.816666 3.01484 2.15542C1.28817 3.51896 0.143379 5.43958 0.0121269 7.61979C-0.120579 9.85979 0.843376 11.9438 2.53796 13.4867C4.26609 15.0558 6.72776 16.0417 9.48109 16.0417C12.233 16.0417 14.6932 15.0558 16.4184 13.4852C18.113 11.9438 19.0784 9.85979 18.9471 7.61833C18.8159 5.44104 17.6696 3.51896 15.943 2.15542C15.943 2.15542 15.943 2.15542 15.943 2.15542Z" fill="#01579B" transform="translate(34.999 30.625)" />
    <path id="Shape" d="M63.9786 29.0681C63.6009 26.4096 62.6792 23.9129 61.2646 21.6379C59.9653 19.5481 58.2969 17.7179 56.3107 16.1765C56.3107 16.1765 56.3136 16.1735 56.3136 16.1735C56.3136 16.1735 56.2597 16.156 56.2597 16.156C56.2188 16.1196 56.1867 16.0773 56.1444 16.0423C56.1444 16.0423 35.3632 0.639377 35.3632 0.639377C34.109 -0.365416 32.2715 -0.165624 31.2638 1.09583C30.2576 2.35292 30.4603 4.18896 31.7203 5.19521C31.7203 5.19521 40.4528 11.6673 40.4528 11.6673C40.4528 11.6673 12.3959 11.6673 12.3959 11.6673C10.3907 11.6673 8.75007 13.3079 8.75007 15.3131C8.75007 17.3183 10.3907 18.959 12.3959 18.959C12.3959 18.959 22.8288 18.959 22.8288 18.959C22.8288 18.959 1.2732 37.3369 1.2732 37.3369C-0.255136 38.6465 -0.433053 40.9506 0.877989 42.4775C1.59986 43.3189 2.6207 43.7506 3.64736 43.7506C4.48736 43.7506 5.33028 43.4619 6.01861 42.8727C6.01861 42.8727 19.0765 31.68 19.0765 31.68C19.0444 32.8569 19.0197 33.9229 19.0255 34.2481C19.0255 39.3756 24.7917 52.5006 41.828 52.5006C53.9584 52.5006 64.1113 45.209 64.1113 33.1617C64.2163 31.7996 64.1711 30.4317 63.9786 29.0681C63.9786 29.0681 63.9786 29.0681 63.9786 29.0681ZM54.7239 33.7654C54.1391 35.3506 53.1926 36.8337 51.902 38.1287C49.2624 40.7829 45.5685 42.285 41.5654 42.2908C37.5622 42.2981 33.8654 40.8077 31.2243 38.1608C29.9337 36.8702 28.9858 35.3885 28.3995 33.8062C27.8279 32.2531 27.6047 30.6052 27.752 28.9427C27.8949 27.3152 28.382 25.765 29.1681 24.3621C29.9395 22.9825 31.0012 21.7371 32.3093 20.6812C34.876 18.6192 38.1412 17.5035 41.5624 17.4992C44.9837 17.4948 48.2474 18.6017 50.8156 20.655C52.1237 21.705 53.1839 22.946 53.9539 24.3227C54.7399 25.7242 55.2285 27.2729 55.3729 28.8989C55.5187 30.5644 55.297 32.2108 54.7239 33.7654C54.7239 33.7654 54.7239 33.7654 54.7239 33.7654Z" fill="#FF6D00" transform="translate(2.917 8.749)" />
  </g>
</svg>