<?xml version="1.0" encoding="utf-8"?>
<svg width="50" height="50" viewBox="0 0 50 50" fill="none" xmlns="http://www.w3.org/2000/svg">
  <g>
    <rect width="50" height="50" />
    <path id="Path" d="M18.649 0.297656C19.3563 -0.0992188 20.2271 -0.0992188 20.9333 0.297656C24.4281 2.25911 34.9448 8.16328 38.4406 10.1247C39.1479 10.5206 39.5833 11.2539 39.5833 12.0477C39.5833 15.9706 39.5833 27.7779 39.5833 31.7008C39.5833 32.4945 39.1479 33.2279 38.4406 33.6247C34.9458 35.5862 24.4292 41.4904 20.9333 43.4518C20.226 43.8487 19.3552 43.8487 18.649 43.4518C15.1542 41.4904 4.6375 35.5862 1.14167 33.6247C0.435417 33.2279 0 32.4956 0 31.7018C0 27.7789 0 15.9716 0 12.0487C0 11.2549 0.435417 10.5216 1.14271 10.1247C4.63646 8.16328 15.1552 2.25911 18.649 0.297656C18.649 0.297656 18.649 0.297656 18.649 0.297656Z" fill="#00549D" fill-rule="evenodd" transform="translate(5.208 3.125)" />
    <path id="Path" d="M0.316667 32.7128C0.0395832 32.342 0 31.9899 0 31.5159C0 27.6159 0 15.8763 0 11.9753C0 11.1857 0.434375 10.4565 1.13958 10.0628C4.62187 8.11279 15.1031 2.243 18.5854 0.29196C19.2906 -0.102832 20.2458 -0.0944984 20.951 0.300293C24.4333 2.25029 34.8792 8.07008 38.3615 10.0201C38.6427 10.1784 38.8573 10.369 39.049 10.6201C39.049 10.6201 0.316667 32.7128 0.316667 32.7128C0.316667 32.7128 0.316667 32.7128 0.316667 32.7128Z" fill="#0086D4" fill-rule="evenodd" transform="translate(5.208 3.125)" />
    <path id="Shape" d="M14.5833 0C22.6323 0 29.1667 6.53437 29.1667 14.5833C29.1667 22.6323 22.6323 29.1667 14.5833 29.1667C6.53437 29.1667 0 22.6323 0 14.5833C0 6.53437 6.53438 0 14.5833 0C14.5833 0 14.5833 0 14.5833 0ZM14.5833 7.29167C18.6073 7.29167 21.875 10.5583 21.875 14.5833C21.875 18.6073 18.6073 21.875 14.5833 21.875C10.5594 21.875 7.29167 18.6073 7.29167 14.5833C7.29167 10.5583 10.5583 7.29167 14.5833 7.29167C14.5833 7.29167 14.5833 7.29167 14.5833 7.29167Z" fill="#FFFFFF" fill-rule="evenodd" transform="translate(10.417 10.417)" />
    <path id="Path" d="M19.6792 0C20.2167 0.503125 20.2063 1.26146 20.2063 1.85833C20.2063 5.81146 20.1729 17.0552 20.2156 21.0083C20.2198 21.4208 20.0833 21.8552 19.8792 22.1823C19.8792 22.1823 0 11.2448 0 11.2448L19.6792 0C19.6792 0 19.6792 0 19.6792 0Z" fill="#0075C0" fill-rule="evenodd" transform="translate(24.576 13.755)" />
    <path id="Shape" d="M0 0L2.08333 0L2.08333 6.25L0 6.25L0 0ZM7.29166 0L9.375 0L9.375 6.25L7.29166 6.25L7.29166 0Z" fill="#FFFFFF" fill-rule="evenodd" transform="translate(32.292 21.875)" />
    <path id="Shape" d="M0 0L6.25 0L6.25 2.08333L0 2.08333L0 0ZM7.29167 0L13.5417 0L13.5417 2.08333L7.29167 2.08333L7.29167 0Z" fill="#FFFFFF" fill-rule="evenodd" transform="translate(30.208 23.958)" />
  </g>
</svg>