<?xml version="1.0" encoding="utf-8"?>
<svg width="50" height="50" viewBox="0 0 50 50" fill="none" xmlns="http://www.w3.org/2000/svg">
  <defs>
    <linearGradient id="gradient_1" gradientUnits="userSpaceOnUse" x1="6.172" y1="-15.546" x2="22.093" y2="28.196">
      <stop offset="0" stop-color="#889097" />
      <stop offset="1" stop-color="#4C5963" />
    </linearGradient>
    <linearGradient id="gradient_2" gradientUnits="userSpaceOnUse" x1="15.847" y1="11.225" x2="33.049" y2="58.487">
      <stop offset="0" stop-color="#889097" />
      <stop offset="1" stop-color="#4C5963" />
    </linearGradient>
    <linearGradient id="gradient_3" gradientUnits="userSpaceOnUse" x1="3.797" y1="-11.21" x2="19.767" y2="32.668">
      <stop offset="0" stop-color="#889097" />
      <stop offset="1" stop-color="#4C5963" />
    </linearGradient>
  </defs>
  <g>
    <rect width="50" height="50" />
    <path id="Path" d="M18.649 0.297656C19.3563 -0.0992188 20.2271 -0.0992188 20.9333 0.297656C24.4281 2.25911 34.9448 8.16328 38.4406 10.1247C39.1479 10.5206 39.5833 11.2539 39.5833 12.0477C39.5833 15.9706 39.5833 27.7779 39.5833 31.7008C39.5833 32.4945 39.1479 33.2279 38.4406 33.6247C34.9458 35.5862 24.4292 41.4904 20.9333 43.4518C20.226 43.8487 19.3552 43.8487 18.649 43.4518C15.1542 41.4904 4.6375 35.5862 1.14167 33.6247C0.435417 33.2279 0 32.4956 0 31.7018C0 27.7789 0 15.9716 0 12.0487C0 11.2549 0.435417 10.5216 1.14271 10.1247C4.63646 8.16328 15.1552 2.25911 18.649 0.297656C18.649 0.297656 18.649 0.297656 18.649 0.297656Z" fill="url(#gradient_1)" fill-rule="evenodd" transform="translate(5.208 3.125)" />
    <path id="Path" d="M0.316667 32.7128C0.0395832 32.342 0 31.9899 0 31.5159C0 27.6159 0 15.8763 0 11.9753C0 11.1857 0.434375 10.4565 1.13958 10.0628C4.62187 8.11279 15.1031 2.243 18.5854 0.29196C19.2906 -0.102832 20.2458 -0.0944984 20.951 0.300293C24.4333 2.25029 34.8792 8.07008 38.3615 10.0201C38.6427 10.1784 38.8573 10.369 39.049 10.6201C39.049 10.6201 0.316667 32.7128 0.316667 32.7128C0.316667 32.7128 0.316667 32.7128 0.316667 32.7128Z" fill="url(#gradient_2)" fill-rule="evenodd" transform="translate(5.208 3.125)" />
    <path id="Shape" d="M14.5833 0C22.6323 0 29.1667 6.53437 29.1667 14.5833C29.1667 22.6323 22.6323 29.1667 14.5833 29.1667C6.53437 29.1667 0 22.6323 0 14.5833C0 6.53437 6.53438 0 14.5833 0C14.5833 0 14.5833 0 14.5833 0ZM14.5833 7.29167C18.6073 7.29167 21.875 10.5583 21.875 14.5833C21.875 18.6073 18.6073 21.875 14.5833 21.875C10.5594 21.875 7.29167 18.6073 7.29167 14.5833C7.29167 10.5583 10.5583 7.29167 14.5833 7.29167C14.5833 7.29167 14.5833 7.29167 14.5833 7.29167Z" fill="#FFFFFF" fill-rule="evenodd" transform="translate(10.417 10.417)" />
    <path id="Path" d="M19.6792 0C20.2167 0.503125 20.2063 1.26146 20.2063 1.85833C20.2063 5.81146 20.1729 17.0552 20.2156 21.0083C20.2198 21.4208 20.0833 21.8552 19.8792 22.1823C19.8792 22.1823 0 11.2448 0 11.2448L19.6792 0C19.6792 0 19.6792 0 19.6792 0Z" fill="url(#gradient_3)" fill-rule="evenodd" transform="translate(24.576 13.755)" />
    <path id="Shape" d="M7.29167 1.04167L7.29167 3.125L9.375 3.125L9.375 4.16667L7.29167 4.16667L7.29167 6.25L9.375 6.25L9.375 7.29167L7.29167 7.29167L7.29167 9.375L6.25 9.375L6.25 7.29167L4.16667 7.29167L4.16667 9.375L3.125 9.375L3.125 7.29167L1.04167 7.29167L1.04167 6.25L3.125 6.25L3.125 4.16667L1.04167 4.16667L1.04167 3.125L3.125 3.125L3.125 1.04167L4.16667 1.04167L4.16667 3.125L6.25 3.125L6.25 1.04167L7.29167 1.04167L7.29167 1.04167ZM4.16667 6.25L6.25 6.25L6.25 4.16667L4.16667 4.16667L4.16667 6.25L4.16667 6.25ZM8.33334 0L7.29167 0L6.25 0L5.20833 0L4.16667 0L3.125 0L2.08333 0L2.08333 1.04167L2.08333 2.08333L1.04167 2.08333L0 2.08333L0 3.125L0 4.16667L0 5.20833L0 6.25L0 7.29167L0 8.33333L1.04167 8.33333L2.08333 8.33333L2.08333 9.375L2.08333 10.4167L3.125 10.4167L4.16667 10.4167L5.20833 10.4167L5.20833 9.375L5.20833 8.33333L5.20833 9.375L5.20833 10.4167L6.25 10.4167L7.29167 10.4167L8.33334 10.4167L8.33334 9.375L8.33334 8.33333L9.375 8.33333L10.4167 8.33333L10.4167 7.29167L10.4167 6.25L10.4167 5.20833L9.375 5.20833L8.33334 5.20833L9.375 5.20833L10.4167 5.20833L10.4167 4.16667L10.4167 3.125L10.4167 2.08333L9.375 2.08333L8.33334 2.08333L8.33334 1.04167L8.33334 0L8.33334 0L8.33334 0Z" fill="#000000" fill-rule="evenodd" fill-opacity="0.05" transform="translate(32.292 19.792)" />
    <path id="Shape" d="M6.77083 0.520834L6.77083 2.60417L8.85416 2.60417L8.85416 3.64583L6.77083 3.64583L6.77083 5.72917L8.85416 5.72917L8.85416 6.77083L6.77083 6.77083L6.77083 8.85417L5.72917 8.85417L5.72917 6.77083L3.64583 6.77083L3.64583 8.85417L2.60417 8.85417L2.60417 6.77083L0.520832 6.77083L0.520832 5.72917L2.60417 5.72917L2.60417 3.64583L0.520832 3.64583L0.520832 2.60417L2.60417 2.60417L2.60417 0.520834L3.64583 0.520834L3.64583 2.60417L5.72917 2.60417L5.72917 0.520834L6.77083 0.520834L6.77083 0.520834ZM3.64583 5.72917L5.72917 5.72917L5.72917 3.64583L3.64583 3.64583L3.64583 5.72917L3.64583 5.72917ZM7.29167 0L6.77083 0L5.72917 0L5.20833 0L5.20833 0.520834L5.20833 2.08333L4.16667 2.08333L4.16667 0.520834L4.16667 0L3.64583 0L2.60417 0L2.08333 0L2.08333 0.520834L2.08333 2.08333L0.520832 2.08333L0 2.08333L0 2.60417L0 3.64583L0 4.16667L0.520832 4.16667L2.08333 4.16667L2.08333 5.20833L0.520832 5.20833L0 5.20833L0 5.72917L0 6.77083L0 7.29167L0.520832 7.29167L2.08333 7.29167L2.08333 8.85417L2.08333 9.375L2.60417 9.375L3.64583 9.375L4.16667 9.375L4.16667 8.85417L4.16667 7.29167L5.20833 7.29167L5.20833 8.85417L5.20833 9.375L5.72917 9.375L6.77083 9.375L7.29167 9.375L7.29167 8.85417L7.29167 7.29167L8.85417 7.29167L9.375 7.29167L9.375 6.77083L9.375 5.72917L9.375 5.20833L8.85417 5.20833L7.29167 5.20833L7.29167 4.16667L8.85417 4.16667L9.375 4.16667L9.375 3.64583L9.375 2.60417L9.375 2.08333L8.85417 2.08333L7.29167 2.08333L7.29167 0.520834L7.29167 0L7.29167 0L7.29167 0ZM4.16667 4.16667L5.20833 4.16667L5.20833 5.20833L4.16667 5.20833L4.16667 4.16667L4.16667 4.16667L4.16667 4.16667Z" fill="#000000" fill-rule="evenodd" fill-opacity="0.07" transform="translate(32.813 20.313)" />
    <path id="Shape" d="M8.33333 3.125L8.33333 2.08333L6.25 2.08333L6.25 0L5.20833 0L5.20833 2.08333L3.125 2.08333L3.125 0L2.08333 0L2.08333 2.08333L0 2.08333L0 3.125L2.08333 3.125L2.08333 5.20833L0 5.20833L0 6.25L2.08333 6.25L2.08333 8.33333L3.125 8.33333L3.125 6.25L5.20833 6.25L5.20833 8.33333L6.25 8.33333L6.25 6.25L8.33333 6.25L8.33333 5.20833L6.25 5.20833L6.25 3.125L8.33333 3.125L8.33333 3.125ZM5.20833 5.20833L3.125 5.20833L3.125 3.125L5.20833 3.125L5.20833 5.20833L5.20833 5.20833Z" fill="#FFFFFF" fill-rule="evenodd" transform="translate(33.333 20.833)" />
    <g id="Group" transform="translate(9.375 9.375)">
      <path id="Shape" d="M15.625 1.04167C20.9667 1.04167 25.6271 3.92813 28.1677 8.21563C28.1677 8.21563 21.8417 11.8302 21.8417 11.8302C20.5594 9.73646 18.2573 8.33333 15.625 8.33333C11.6 8.33333 8.33333 11.6 8.33333 15.625C8.33333 19.649 11.601 22.9167 15.625 22.9167C18.3021 22.9167 20.6375 21.4667 21.9052 19.3135C21.9052 19.3135 28.2927 22.8281 28.2927 22.8281C25.7812 27.2312 21.0521 30.2083 15.625 30.2083C7.57604 30.2083 1.04167 23.674 1.04167 15.625C1.04167 7.57604 7.57604 1.04167 15.625 1.04167C15.625 1.04167 15.625 1.04167 15.625 1.04167ZM15.625 0C7.00938 0 0 7.00938 0 15.625C0 24.2406 7.00938 31.25 15.625 31.25C21.2156 31.25 26.4167 28.2208 29.1979 23.3438C29.1979 23.3438 29.7219 22.425 29.7219 22.425L28.7948 21.9146L22.4073 18.4L21.5208 17.9125C21.5208 17.9125 21.0073 18.7844 21.0073 18.7844C19.8854 20.6906 17.8229 21.875 15.625 21.875C12.1792 21.875 9.375 19.0708 9.375 15.625C9.375 12.1792 12.1792 9.375 15.625 9.375C17.8115 9.375 19.8031 10.4958 20.9531 12.374C20.9531 12.374 21.4813 13.2365 21.4813 13.2365L22.3583 12.7354L28.6844 9.12083L29.6031 8.59583C29.6031 8.59583 29.0635 7.68541 29.0635 7.68541C26.2552 2.94479 21.1062 0 15.625 0C15.625 0 15.625 0 15.625 0C15.625 0 15.625 0 15.625 0Z" fill="#000000" fill-rule="evenodd" fill-opacity="0.05" />
      <path id="Shape" d="M15.1042 0.520833C20.4458 0.520833 25.1062 3.40729 27.6469 7.69479C27.6469 7.69479 21.3208 11.3094 21.3208 11.3094C20.0385 9.21562 17.7365 7.8125 15.1042 7.8125C11.0792 7.8125 7.8125 11.0792 7.8125 15.1042C7.8125 19.1281 11.0802 22.3958 15.1042 22.3958C17.7812 22.3958 20.1167 20.9458 21.3844 18.7927C21.3844 18.7927 27.7719 22.3073 27.7719 22.3073C25.2604 26.7104 20.5312 29.6875 15.1042 29.6875C7.05521 29.6875 0.520833 23.1531 0.520833 15.1042C0.520833 7.05521 7.05521 0.520833 15.1042 0.520833C15.1042 0.520833 15.1042 0.520833 15.1042 0.520833ZM15.1042 0C6.77604 0 0 6.77604 0 15.1042C0 23.4323 6.77604 30.2083 15.1042 30.2083C20.5083 30.2083 25.5354 27.2792 28.224 22.5656C28.224 22.5656 28.4865 22.1062 28.4865 22.1062L28.0229 21.851L21.6354 18.3365L21.1927 18.0927C21.1927 18.0927 20.9365 18.5281 20.9365 18.5281C19.7198 20.5927 17.4854 21.875 15.1042 21.875C11.3708 21.875 8.33333 18.8375 8.33333 15.1042C8.33333 11.3708 11.3708 8.33333 15.1042 8.33333C17.474 8.33333 19.6313 9.54792 20.8771 11.5812C20.8771 11.5812 21.1406 12.0125 21.1406 12.0125L21.5792 11.7615L27.9052 8.14688L28.3646 7.88438C28.3646 7.88438 28.0948 7.42917 28.0948 7.42917C25.3792 2.84687 20.4021 0 15.1042 0C15.1042 0 15.1042 0 15.1042 0C15.1042 0 15.1042 0 15.1042 0Z" fill="#000000" fill-rule="evenodd" fill-opacity="0.07" transform="translate(0.521 0.521)" />
    </g>
  </g>
</svg>