<?xml version="1.0" encoding="utf-8"?>
<svg width="48" height="48" viewBox="0 0 48 48" fill="none" xmlns="http://www.w3.org/2000/svg">
  <g>
    <rect width="48" height="48" />
    <path id="Path" d="M34 0L0 0L3 34L17 38L31 34L34 0L34 0L34 0Z" fill="#0277BD" transform="translate(7 5)" />
    <path id="Path" d="M0 0L0 31.9L11.2 28.7L13.7 0L0 0Z" fill="#039BE5" transform="translate(24 8)" />
    <path id="Path" d="M9.1 0L0 0L0 4L4.9 4L4.6 8L0 8L0 12L4.4 12L4.1 16.5L0 17.9L0 22.1L7.9 19.5L8.6 8L8.6 8L9.1 0Z" fill="#FFFFFF" transform="translate(24 13)" />
    <path id="Shape" d="M9.2 0L9.2 4L0.3 4L0 0L9.2 0L9.2 0ZM4.6 8L4.8 12L9.2 12L9.2 8L4.6 8L4.6 8ZM5 14L0.999999 14L1.3 19.5L9.2 22.1L9.2 17.9L5.1 16.5L5 14L5 14Z" fill="#EEEEEE" transform="translate(14.8 13)" />
  </g>
</svg>