<?xml version="1.0" encoding="utf-8"?>
<svg width="41.582" height="40.393" viewBox="0 0 41.582 40.393" fill="none" xmlns="http://www.w3.org/2000/svg">
  <defs>
    <path id="path_1" d="M18.4573 0.144196C8.8739 1.18585 1.16553 8.8942 0.123901 18.2692C-0.917725 28.0609 4.70728 36.8109 13.2489 40.1442C13.8739 40.3525 14.4989 39.9359 14.4989 39.1025C14.4989 39.1025 14.4989 35.7692 14.4989 35.7692C14.4989 35.7692 13.6655 35.9775 12.6239 35.9775C9.70728 35.9775 8.45728 33.4775 8.2489 32.0192C8.04053 31.1859 7.6239 30.5609 6.9989 29.9359C6.3739 29.7275 6.16553 29.7275 6.16553 29.5192C6.16553 29.1025 6.79053 29.1025 6.9989 29.1025C8.2489 29.1025 9.29053 30.5609 9.70728 31.1859C10.7489 32.8525 11.9989 33.2692 12.6239 33.2692C13.4573 33.2692 14.0823 33.0609 14.4989 32.8525C14.7073 31.3942 15.3323 29.9359 16.5823 29.1025C11.7905 28.0609 8.2489 25.3525 8.2489 20.7692C8.2489 18.4775 9.29053 16.1859 10.7489 14.5192C10.5405 14.1025 10.3323 13.0609 10.3323 11.6025C10.3323 10.7692 10.3323 9.5192 10.9573 8.2692C10.9573 8.2692 13.8739 8.2692 16.7905 10.9775C17.8323 10.5609 19.2905 10.3525 20.7489 10.3525C22.2073 10.3525 23.6655 10.5609 24.9155 10.9775C27.6239 8.2692 30.7489 8.2692 30.7489 8.2692C31.1655 9.5192 31.1655 10.7692 31.1655 11.6025C31.1655 13.2692 30.9573 14.1025 30.7489 14.5192C32.2073 16.1859 33.2489 18.2692 33.2489 20.7692C33.2489 25.3525 29.7073 28.0609 24.9155 29.1025C26.1655 30.1442 26.9989 32.0192 26.9989 33.8942C26.9989 33.8942 26.9989 39.3109 26.9989 39.3109C26.9989 39.9359 27.6239 40.5609 28.4573 40.3525C36.1655 37.2275 41.5823 29.7275 41.5823 20.9775C41.5823 8.47754 30.9573 -1.31412 18.4573 0.144196C18.4573 0.144196 18.4573 0.144196 18.4573 0.144196Z" />
  </defs>
  <g>
    <use p3:href="#path_1" fill="#FFFFFF" fill-rule="evenodd" xmlns:p3="http://www.w3.org/1999/xlink" />
    <use p3:href="#path_1" fill="#FFFFFF" fill-rule="evenodd" xmlns:p3="http://www.w3.org/1999/xlink" />
  </g>
</svg>