<?xml version="1.0" encoding="utf-8"?>
<svg width="50" height="50" viewBox="0 0 50 50" fill="none" xmlns="http://www.w3.org/2000/svg">
  <g>
    <rect width="50" height="50" />
    <path id="Shape" d="M0.818812 0C0.303187 0.09375 -0.0522823 0.574219 0.00631189 1.09375C0.00631189 1.09375 3.53756 40.5313 3.53756 40.5313C3.58444 40.9336 3.86959 41.2656 4.25631 41.375C4.25631 41.375 20.2563 45.9688 20.2563 45.9688C20.4399 46.0234 20.6352 46.0234 20.8188 45.9688C20.8188 45.9688 36.8188 41.375 36.8188 41.375C37.2055 41.2656 37.4907 40.9336 37.5376 40.5313C37.5376 40.5313 41.0688 1.09375 41.0688 1.09375C41.0962 0.8125 41.0024 0.535156 40.811 0.324219C40.6196 0.117188 40.3501 0 40.0688 0C40.0688 0 1.00631 0 1.00631 0C0.975062 0 0.943812 0 0.912562 0C0.881312 0 0.850062 0 0.818812 0C0.818812 0 0.818812 0 0.818812 0ZM2.10006 2L38.9751 2L35.6313 39.6563L20.5376 43.9375L5.44381 39.6563L2.10006 2ZM8.06881 8.0625C7.55319 8.15625 7.19772 8.63672 7.25631 9.15625C7.25631 9.15625 8.60006 23.9375 8.60006 23.9375C8.63131 24.4531 9.05319 24.8594 9.56881 24.875C9.56881 24.875 25.5376 24.875 25.5376 24.875L25.1001 29.4688L20.5688 30.4375L15.9751 29.4688C15.9751 29.4688 15.8188 27.8438 15.8188 27.8438C15.7876 27.3164 15.3462 26.9063 14.8188 26.9063C14.8188 26.9063 9.94381 26.9063 9.94381 26.9063C9.66256 26.9063 9.39303 27.0234 9.20163 27.2305C9.01022 27.4414 8.91647 27.7188 8.94381 28C8.94381 28 9.50631 34.125 9.50631 34.125C9.53756 34.5273 9.80709 34.875 10.1938 35C10.1938 35 20.1313 38.0313 20.1313 38.0313C20.1313 38.0313 20.2563 38.0625 20.2563 38.0625C20.4399 38.1172 20.6352 38.1172 20.8188 38.0625C20.8188 38.0625 30.8813 35 30.8813 35C31.2797 34.8867 31.5649 34.5391 31.6001 34.125C31.6001 34.125 32.9126 19.0938 32.9126 19.0938C32.9399 18.8164 32.8501 18.543 32.6665 18.3359C32.4829 18.1289 32.2212 18.0078 31.9438 18C31.9438 18 14.9126 18 14.9126 18L14.6626 14.9063C14.6626 14.9063 32.3813 14.9063 32.3813 14.9063C32.9008 14.9102 33.3344 14.5156 33.3813 14C33.3813 14 33.8188 9.15625 33.8188 9.15625C33.8462 8.875 33.7524 8.59766 33.561 8.38672C33.3696 8.17969 33.1001 8.0625 32.8188 8.0625C32.8188 8.0625 8.25631 8.0625 8.25631 8.0625C8.19381 8.05469 8.13131 8.05469 8.06881 8.0625C8.06881 8.0625 8.06881 8.0625 8.06881 8.0625ZM9.35006 10.0625L31.7251 10.0625L31.4751 12.9063C31.4751 12.9063 13.5688 12.9063 13.5688 12.9063C13.2876 12.9063 13.018 13.0234 12.8266 13.2305C12.6352 13.4414 12.5415 13.7188 12.5688 14C12.5688 14 13.0376 19.0938 13.0376 19.0938C13.0844 19.5977 13.5024 19.9883 14.0063 20C14.0063 20 30.8501 20 30.8501 20L29.6626 33.2813L20.5376 36.0313L11.4126 33.2813L11.0376 28.9063L13.9126 28.9063C13.9126 28.9063 14.0376 30.375 14.0376 30.375C14.0688 30.8164 14.3852 31.1836 14.8188 31.2813C14.8188 31.2813 20.3813 32.4375 20.3813 32.4375C20.5141 32.4648 20.6547 32.4648 20.7876 32.4375C20.7876 32.4375 26.2563 31.2813 26.2563 31.2813C26.6899 31.1836 27.0063 30.8164 27.0376 30.375C27.0376 30.375 27.6313 23.9375 27.6313 23.9375C27.6469 23.6602 27.5493 23.3906 27.3618 23.1914C27.1704 22.9883 26.9087 22.875 26.6313 22.875C26.6313 22.875 10.4751 22.875 10.4751 22.875L9.35006 10.0625Z" fill="#FFFFFF" transform="translate(4.462 2)" />
  </g>
</svg>