<?xml version="1.0" encoding="utf-8"?>
<svg width="48" height="48" viewBox="0 0 48 48" fill="none" xmlns="http://www.w3.org/2000/svg">
  <g>
    <rect width="48" height="48" />
    <path id="Path" d="M5.82828 20.899C4.83028 19.29 4.10628 17.956 3.10328 15.444C1.40728 11.201 13.4183 7.367 8.54828 0C10.6593 5.089 0.971283 8.235 0.0712833 12.473C-0.751719 16.371 5.82328 20.899 5.82828 20.899C5.82828 20.899 5.82828 20.899 5.82828 20.899Z" fill="#F44336" transform="translate(17.822 3.999)" />
    <path id="Path" d="M0.0108414 6.221C-0.181158 8.737 2.23984 10.078 2.30984 11.916C2.36584 13.412 0.862841 14.659 0.862841 14.659C0.862841 14.659 3.59084 14.123 4.44184 11.841C5.38684 9.307 2.60784 7.572 2.89384 5.543C3.16084 3.605 8.92484 0 8.92484 0C8.92484 0 0.443842 0.562001 0.0108414 6.221C0.0108414 6.221 0.0108414 6.221 0.0108414 6.221Z" fill="#F44336" transform="translate(23.867 11.049)" />
    <g id="Group" transform="translate(9 24.114)">
      <path id="Shape" d="M20.401 0.940945C22.155 0.546946 23.634 1.66394 23.634 2.95095C23.634 5.85194 19.613 8.59394 19.613 8.59394C19.613 8.59394 25.838 7.85194 25.838 3.08894C25.838 -0.061056 22.781 -0.848055 20.401 0.940945C20.401 0.940945 20.401 0.940945 20.401 0.940945ZM17.446 3.28095C17.446 3.28095 19.387 1.89795 19.904 1.37894C15.141 2.38994 4.266 2.52594 4.266 1.64794C4.266 0.838944 7.773 0.00994314 7.773 0.00994314C7.773 0.00994314 0 -0.102056 0 2.19094C-1.90735e-06 4.58094 10.175 4.75194 17.446 3.28095C17.446 3.28095 17.446 3.28095 17.446 3.28095Z" fill="#1565C0" transform="translate(2.683 0)" />
      <path id="Path" d="M13.328 0.993C8.819 2.492 0.514 2.013 2.974 0C1.776 0 0 0.962999 0 1.889C0 3.746 8.982 5.18 15.63 2.461C15.63 2.461 13.328 0.993 13.328 0.993C13.328 0.993 13.328 0.993 13.328 0.993Z" fill="#1565C0" transform="translate(5.607 4.464)" />
      <path id="Path" d="M2.695 0C1.059 0 0 1.054 0 1.822C0 4.213 9.76 4.454 13.627 2.027C13.627 2.027 11.169 0.395 11.169 0.395C8.28 1.665 1.023 1.84 2.695 0C2.695 0 2.695 0 2.695 0Z" fill="#1565C0" transform="translate(6.991 8.625)" />
      <path id="Path" d="M27.281 1.8448C27.281 0.908795 26.226 0.467797 25.848 0.256795C28.076 5.6298 3.531 5.2128 3.531 2.0408C3.531 1.31979 5.338 0.613797 7.008 0.947797C7.008 0.947797 5.588 0.108796 5.588 0.108796C2.26 -0.413203 0 1.0498 0 2.22979C0 7.7328 27.281 7.4678 27.281 1.8448C27.281 1.8448 27.281 1.8448 27.281 1.8448Z" fill="#1565C0" transform="translate(0 10.673)" />
      <path id="Path" d="M25.231 0C21.085 4.095 10.572 5.587 0 3.057C10.572 7.56 25.181 5.024 25.231 0C25.231 0 25.231 0 25.231 0Z" fill="#1565C0" transform="translate(4.769 14.49)" />
    </g>
  </g>
</svg>