<?xml version="1.0" encoding="utf-8"?>
<svg width="48" height="48" viewBox="0 0 48 48" fill="none" xmlns="http://www.w3.org/2000/svg">
  <g>
    <rect width="48" height="48" />
    <path id="Path" d="M4.76837e-07 7.5C4.76837e-07 3.358 3.358 0 7.5 0C7.5 0 28.478 0 28.478 0C32.62 0 35.978 3.358 35.978 7.5C35.978 7.5 35.978 28.478 35.978 28.478C35.978 32.62 32.62 35.978 28.478 35.978C28.478 35.978 7.5 35.978 7.5 35.978C3.358 35.978 0 32.62 0 28.478C0 28.478 0 7.5 0 7.5C0 7.5 4.76837e-07 7.5 4.76837e-07 7.5Z" fill="#199BE2" fill-rule="evenodd" transform="translate(5.761 6)" />
    <path id="Path" d="M0 23.85L0 1.871L11.989 1.871L11.989 6.106C11.989 6.106 13.138 5.679 13.138 5.679C14.6 5.136 15.75 3.986 16.294 2.523C16.294 2.523 17.232 0 17.232 0C17.232 0 18.17 2.524 18.17 2.524C18.713 3.986 19.863 5.136 21.326 5.679C21.326 5.679 23.851 6.617 23.851 6.617C23.851 6.617 21.326 7.555 21.326 7.555C19.863 8.099 18.713 9.249 18.17 10.711C18.17 10.711 17.232 13.234 17.232 13.234C17.232 13.234 16.294 10.711 16.294 10.711C15.751 9.249 14.6 8.099 13.137 7.555C13.137 7.555 11.989 7.127 11.989 7.127L11.989 20.436L21.978 10.447L21.978 23.85L0 23.85L0 23.85Z" fill="#000000" fill-rule="evenodd" fill-opacity="0.05" transform="translate(13.011 11.129)" />
    <path id="Shape" d="M0 21.914L0 0.934999L10.989 0.934999L10.989 20.206L20.978 10.217L20.978 21.913L0 21.913L0 21.914ZM16.263 9.101C15.669 7.503 14.41 6.245 12.811 5.65C12.811 5.65 11.551 5.18 11.551 5.18C11.551 5.18 12.812 4.712 12.812 4.712C14.411 4.118 15.668 2.86 16.263 1.262C16.263 1.262 16.732 0 16.732 0C16.732 0 17.201 1.262 17.201 1.262C17.795 2.861 19.053 4.118 20.652 4.712C20.652 4.712 21.915 5.181 21.915 5.181C21.915 5.181 20.652 5.65 20.652 5.65C19.052 6.245 17.795 7.503 17.201 9.101C17.201 9.101 16.732 10.363 16.732 10.363L16.263 9.101C16.263 9.101 16.263 9.101 16.263 9.101Z" fill="#000000" fill-rule="evenodd" fill-opacity="0.07" transform="translate(13.511 12.565)" />
    <path id="Shape" d="M0 0L9.989 0L9.989 19.978L0 19.978L0 0L0 0ZM9.989 19.979L19.978 9.99L19.978 19.979L9.989 19.979L9.989 19.979ZM19.978 3.747C18.243 3.103 16.876 1.736 16.232 0.000999451C15.588 1.735 14.22 3.103 12.486 3.747C14.22 4.392 15.587 5.759 16.232 7.493C16.876 5.759 18.244 4.391 19.978 3.747C19.978 3.747 19.978 3.747 19.978 3.747Z" fill="#F9F9F9" fill-rule="evenodd" transform="translate(14.011 14)" />
  </g>
</svg>