<?xml version="1.0" encoding="utf-8"?>
<svg width="70" height="70" viewBox="0 0 70 70" fill="none" xmlns="http://www.w3.org/2000/svg">
  <g>
    <rect width="70" height="70" />
    <path id="Shape" d="M7.58917 0.110836C7.58917 0.110836 0.433126 4.07021 0.433126 4.07021C0.164791 4.2175 0 4.49167 0 4.78771C0 4.78771 0 12.7108 0 12.7108C0 13.0069 0.164791 13.2796 0.433125 13.4283C0.433125 13.4283 7.59062 17.3906 7.59062 17.3906C7.8575 17.5379 8.18854 17.5379 8.45542 17.3906C8.45542 17.3906 15.6115 13.4283 15.6115 13.4283C15.8769 13.2796 16.0417 13.0069 16.0417 12.7108C16.0417 12.7108 16.0417 4.78771 16.0417 4.78771C16.0417 4.49167 15.8769 4.21896 15.6085 4.07021C15.6085 4.07021 8.45396 0.110834 8.45396 0.110834C8.31979 0.0364571 8.16958 0 8.02083 0C7.87062 0 7.72187 0.0364571 7.5877 0.110834C7.5877 0.110834 7.58917 0.110836 7.58917 0.110836ZM44.4077 7.24354C44.4077 7.24354 43.2148 7.90271 43.2148 7.90271C43.1696 7.9275 43.1433 7.97271 43.1433 8.02229C43.1433 8.02229 43.1433 9.34355 43.1433 9.34355C43.1433 9.39313 43.171 9.43834 43.2148 9.46313C43.2148 9.46313 44.4077 10.1238 44.4077 10.1238C44.4529 10.1485 44.5069 10.1485 44.5521 10.1238C44.5521 10.1238 45.745 9.46313 45.745 9.46313C45.7887 9.43834 45.8165 9.39313 45.8165 9.34355C45.8165 9.34355 45.8165 8.02229 45.8165 8.02229C45.8165 7.97271 45.7887 7.9275 45.7435 7.90271C45.7435 7.90271 44.5506 7.24354 44.5506 7.24354C44.5287 7.23042 44.504 7.22458 44.4792 7.22458C44.4544 7.22458 44.4296 7.23042 44.4077 7.24354C44.4077 7.24354 44.4077 7.24354 44.4077 7.24354Z" fill="#388E3C" transform="translate(17.5 27.775)" />
    <path id="Shape" d="M15.6785 1.98883C15.6785 1.98883 12.1946 0.0448685 12.1946 0.0448685C12.0852 -0.0163803 11.951 -0.0149231 11.8431 0.0492439C11.7352 0.113411 11.6681 0.228621 11.6681 0.354036C11.6681 0.354036 11.6667 12.0965 11.6667 12.0965C11.6667 12.0965 8.45396 10.3188 8.45396 10.3188C8.31979 10.2444 8.16959 10.208 8.02084 10.208C7.87209 10.208 7.72188 10.2444 7.58771 10.3188C7.58771 10.3188 7.58917 10.3188 7.58917 10.3188C7.58917 10.3188 0.433125 14.2782 0.433125 14.2782C0.164791 14.4255 0 14.6997 0 14.9942C0 14.9942 0 22.9174 0 22.9174C0 23.2134 0.164791 23.4861 0.433125 23.6349C0.433125 23.6349 7.59063 27.5972 7.59063 27.5972C7.85751 27.7444 8.18855 27.7444 8.45542 27.5972C8.45542 27.5972 15.6115 23.6349 15.6115 23.6349C15.8769 23.4876 16.0417 23.2134 16.0417 22.9174C16.0417 22.9174 16.0417 2.60716 16.0417 2.60716C16.0417 2.35049 15.9017 2.11424 15.6785 1.98883C15.6785 1.98883 15.6785 1.98883 15.6785 1.98883ZM11.4713 21.0842C11.4713 21.0842 8.21917 22.8853 8.21917 22.8853C8.09813 22.9524 7.94792 22.9524 7.82688 22.8853C7.82688 22.8853 4.57334 21.0842 4.57334 21.0842C4.44938 21.0172 4.375 20.8917 4.375 20.7576C4.375 20.7576 4.375 17.1555 4.375 17.1555C4.375 17.0213 4.44938 16.8974 4.57188 16.8288C4.57188 16.8288 7.82542 15.0292 7.82542 15.0292C7.82542 15.0292 7.82396 15.0292 7.82396 15.0292C7.88521 14.9957 7.9523 14.9797 8.02084 14.9797C8.08938 14.9797 8.15646 14.9972 8.21771 15.0292C8.21771 15.0292 11.4698 16.8288 11.4698 16.8288C11.5923 16.8974 11.6667 17.0228 11.6667 17.1569C11.6667 17.1569 11.6667 20.759 11.6667 20.759C11.6667 20.8917 11.5923 21.0172 11.4713 21.0842C11.4713 21.0842 11.4713 21.0842 11.4713 21.0842Z" fill="#B2DFDB" transform="translate(36.458 17.5)" />
    <path id="Path" d="M7.58917 0.110834C7.58917 0.110834 0 12.7108 0 12.7108C0 13.0069 0.164791 13.2796 0.433125 13.4283C0.433125 13.4283 7.59062 17.3906 7.59062 17.3906C7.8575 17.5379 8.18854 17.5379 8.45542 17.3906C8.45542 17.3906 16.0417 4.78771 16.0417 4.78771C16.0417 4.49167 15.8769 4.21896 15.6085 4.07021C15.6085 4.07021 8.45396 0.110834 8.45396 0.110834C8.31979 0.0364571 8.16958 0 8.02083 0C7.87062 0 7.72187 0.0364571 7.5877 0.110834C7.5877 0.110834 7.58917 0.110834 7.58917 0.110834Z" fill="#2E7D32" transform="translate(17.5 27.775)" />
    <path id="Path" d="M7.58917 0.110836C7.58917 0.110836 0.433126 4.07021 0.433126 4.07021C0.164791 4.2175 0 4.49167 0 4.78771C0 4.78771 7.58917 17.3906 7.58917 17.3906C7.85604 17.5379 8.18708 17.5379 8.45396 17.3906C8.45396 17.3906 15.61 13.4283 15.61 13.4283C15.8769 13.2796 16.0417 13.0069 16.0417 12.7108C16.0417 12.7108 8.45396 0.110834 8.45396 0.110834C8.31979 0.0364571 8.16958 0 8.02083 0C7.87062 0 7.72187 0.0364571 7.58771 0.110834C7.58771 0.110834 7.58917 0.110836 7.58917 0.110836Z" fill="#4CAF50" transform="translate(17.5 27.775)" />
    <path id="Shape" d="M69.5669 4.07021C69.5669 4.07021 62.4123 0.110834 62.4123 0.110834C62.2781 0.0364571 62.1279 0 61.9792 0C61.8304 0 61.6802 0.0364571 61.546 0.110834C61.546 0.110834 61.5475 0.110834 61.5475 0.110834C61.5475 0.110834 54.3914 4.07021 54.3914 4.07021C54.1246 4.2175 53.9583 4.4975 53.9583 4.80375C53.9583 4.80375 53.9583 12.6948 53.9583 12.6948C53.9583 12.9996 54.1246 13.281 54.3915 13.4283C54.3915 13.4283 61.549 17.3906 61.549 17.3906C61.8173 17.5394 62.1454 17.5394 62.4137 17.3906C62.4137 17.3906 65.714 15.5633 65.714 15.5633C66.0158 15.3956 66.0144 14.9625 65.711 14.7962C65.711 14.7962 58.5302 10.8777 58.5302 10.8777C58.4092 10.8092 58.3333 10.6823 58.3333 10.5452C58.3333 10.5452 58.3333 6.94896 58.3333 6.94896C58.3333 6.8148 58.4062 6.69083 58.5229 6.62667C58.5229 6.62667 61.7823 4.82417 61.7823 4.82417C61.7823 4.82417 61.7808 4.82417 61.7808 4.82417C61.8421 4.79062 61.9092 4.77459 61.9777 4.77459C62.0462 4.77459 62.1133 4.79208 62.1746 4.82417C62.1746 4.82417 65.434 6.62812 65.434 6.62812C65.5506 6.6923 65.6235 6.81625 65.6235 6.95042C65.6235 6.95042 65.6235 9.88458 65.6235 9.88458C65.6235 10.01 65.6906 10.1267 65.8 10.1894C65.9094 10.2506 66.0435 10.2506 66.1529 10.1879C66.1529 10.1879 69.65 8.15646 69.65 8.15646C69.8658 8.03104 70 7.79917 70 7.54834C70 7.54834 70 4.80667 70 4.80667C70 4.49896 69.8337 4.2175 69.5669 4.07021C69.5669 4.07021 69.5669 4.07021 69.5669 4.07021ZM15.6085 4.07021C15.6085 4.07021 8.45396 0.110834 8.45396 0.110834C8.31979 0.0364571 8.16958 0 8.02083 0C7.87208 0 7.72188 0.0364571 7.58771 0.110834C7.58771 0.110834 7.58917 0.110834 7.58917 0.110834C7.58917 0.110834 0.433125 4.07021 0.433125 4.07021C0.16625 4.2175 0 4.4975 0 4.80375C0 4.80375 0 15.6902 0 15.6902C0 15.8156 0.0670833 15.9323 0.176458 15.995C0.285833 16.0562 0.42 16.0562 0.529375 15.9935C0.529375 15.9935 4.02646 13.9621 4.02646 13.9621C4.24229 13.8367 4.375 13.6048 4.375 13.354C4.375 13.354 4.375 6.9475 4.375 6.9475C4.375 6.81334 4.44792 6.68937 4.56458 6.62521C4.56458 6.62521 7.82396 4.8227 7.82396 4.8227C7.82396 4.8227 7.82396 4.8227 7.82396 4.8227C7.88521 4.78917 7.95229 4.77312 8.02083 4.77312C8.08938 4.77312 8.15646 4.79062 8.21771 4.8227C8.21771 4.8227 11.4771 6.62666 11.4771 6.62666C11.5938 6.69083 11.6667 6.81479 11.6667 6.94896C11.6667 6.94896 11.6667 13.3554 11.6667 13.3554C11.6667 13.6062 11.7994 13.8381 12.0167 13.9635C12.0167 13.9635 15.5137 15.995 15.5137 15.995C15.6231 16.0577 15.7573 16.0577 15.8667 15.9965C15.9746 15.9323 16.0417 15.8156 16.0417 15.6902C16.0417 15.6902 16.0417 4.80521 16.0417 4.80521C16.0417 4.49895 15.8754 4.2175 15.6085 4.07021C15.6085 4.07021 15.6085 4.07021 15.6085 4.07021Z" fill="#B2DFDB" transform="translate(0 27.708)" />
  </g>
</svg>