<?xml version="1.0" encoding="utf-8"?>
<svg width="50" height="50" viewBox="0 0 50 50" fill="none" xmlns="http://www.w3.org/2000/svg">
  <g>
    <rect width="50" height="50" />
    <path id="Shape" d="M20.2963 7.62939e-05C18.6765 0.00528479 17.5536 0.147993 16.1963 0.382368C12.188 1.08029 11.4578 2.54591 11.4578 5.24695C11.4578 5.24695 11.4578 9.37508 11.4578 9.37508L20.8328 9.37508L20.8328 11.4584L11.1015 11.4584C11.1015 11.4584 6.57026 11.4584 6.57026 11.4584C3.82443 11.4584 1.4213 12.7522 0.659845 15.8532C-0.200572 19.4126 -0.239113 21.6417 0.659845 25.3584C1.34214 28.1303 2.84526 30.2084 5.59214 30.2084C5.59214 30.2084 9.37547 30.2084 9.37547 30.2084C9.37547 30.2084 9.37547 24.8917 9.37547 24.8917C9.37547 21.8022 12.1734 18.7501 15.3796 18.7501C15.3796 18.7501 22.9171 18.7501 22.9171 18.7501C25.5453 18.7501 28.1255 16.8105 28.1255 14.1907C28.1255 14.1907 28.1255 5.24695 28.1255 5.24695C28.1255 2.70633 26.2932 0.806327 23.7317 0.380285C23.7953 0.374035 21.9026 -0.00617361 20.2963 7.62939e-05C20.2963 7.62939e-05 20.2963 7.62939e-05 20.2963 7.62939e-05ZM15.1046 4.16674C15.9598 4.16674 16.6671 4.87195 16.6671 5.73133C16.6671 6.59903 15.9598 7.29174 15.1046 7.29174C14.2328 7.29174 13.5421 6.60008 13.5421 5.73133C13.5421 4.87508 14.2328 4.16674 15.1046 4.16674C15.1046 4.16674 15.1046 4.16674 15.1046 4.16674Z" fill="#0277BD" transform="translate(4.753 5.208)" />
    <path id="Shape" d="M7.82916 30.2083C9.44896 30.2031 10.5719 30.0604 11.9292 29.826C15.9375 29.1281 16.6677 27.6625 16.6677 24.9615C16.6677 24.9615 16.6677 20.8333 16.6677 20.8333L7.29271 20.8333L7.29271 18.75L17.025 18.75C17.025 18.75 21.5562 18.75 21.5562 18.75C24.3021 18.75 26.7052 17.4562 27.4667 14.3552C28.3271 10.7958 28.3656 8.56667 27.4667 4.85C26.7833 2.07813 25.2802 0 22.5333 0C22.5333 0 18.75 0 18.75 0C18.75 0 18.75 5.31667 18.75 5.31667C18.75 8.40625 15.9521 11.4583 12.7458 11.4583C12.7458 11.4583 5.20833 11.4583 5.20833 11.4583C2.58021 11.4583 0 13.3979 0 16.0177C0 16.0177 0 24.9615 0 24.9615C0 27.5021 1.83229 29.4021 4.39375 29.8281C4.33021 29.8344 6.22291 30.2146 7.82916 30.2083C7.82916 30.2083 7.82916 30.2083 7.82916 30.2083ZM13.0219 26.0417C12.1667 26.0417 11.4594 25.3365 11.4594 24.4771C11.4594 23.6094 12.1667 22.9167 13.0219 22.9167C13.8937 22.9167 14.5844 23.6083 14.5844 24.4771C14.5844 25.3333 13.8927 26.0417 13.0219 26.0417C13.0219 26.0417 13.0219 26.0417 13.0219 26.0417Z" fill="#FFC107" transform="translate(16.21 14.583)" />
  </g>
</svg>