<?xml version="1.0" encoding="utf-8"?>
<svg width="40" height="40" viewBox="0 0 40 40" fill="none" xmlns="http://www.w3.org/2000/svg">
  <g>
    <rect width="40" height="40" />
    <path id="Shape" d="M20 17.9C8.598 17.9 0 14.17 0 9C0 3.83 8.598 0 20 0C31.402 0 40 3.83 40 9C40 14.17 31.402 17.9 20 17.9C20 17.9 20 17.9 20 17.9ZM20 2.932C10.271 2.932 2.875 6.198 2.875 9.063C2.875 11.928 10.271 15.068 20 15.068C29.729 15.068 37.125 11.802 37.125 8.937C37.125 6.072 29.729 2.932 20 2.932C20 2.932 20 2.932 20 2.932Z" fill="#4E7AB5" transform="translate(0 11)" />
    <path id="Shape" d="M5.39496 35.997C5.39396 35.997 5.39496 35.997 5.39496 35.997C4.46396 35.997 3.61396 35.781 2.86696 35.355C1.64696 34.658 0.771964 33.427 0.334964 31.793C-0.811036 27.511 1.03796 20.311 5.04796 13.449C9.75296 5.404 16 0 20.592 0C21.522 0 22.372 0.216 23.119 0.642C24.337 1.337 25.213 2.567 25.65 4.2C26.797 8.482 24.947 15.683 20.935 22.545C16.234 30.591 9.98797 35.997 5.39496 35.997C5.39496 35.997 5.39496 35.997 5.39496 35.997ZM20.592 3C17.704 3 12.183 7.193 7.63796 14.963C3.51496 22.019 2.30596 27.872 3.23396 31.017C3.48497 31.866 3.83896 32.455 4.35497 32.749C6.71597 34.097 13.164 29.899 18.346 21.032C22.471 13.975 23.806 8.247 22.752 4.977C22.481 4.136 22.148 3.542 21.633 3.249C21.34 3.081 20.999 3 20.592 3C20.592 3 20.592 3 20.592 3Z" fill="#4E7AB5" transform="translate(7.007 2.003)" />
    <path id="Shape" d="M20.592 35.997C20.592 35.997 20.592 35.997 20.592 35.997C15.995 35.996 9.74896 30.592 5.04796 22.548C1.03796 15.686 -0.811036 8.485 0.334964 4.204C0.771963 2.57 1.64696 1.339 2.86596 0.643C3.61396 0.216 4.46396 0 5.39296 0C9.98796 0 16.233 5.406 20.935 13.452C24.946 20.313 26.795 27.514 25.649 31.797C25.211 33.43 24.336 34.66 23.119 35.355C22.372 35.781 21.521 35.997 20.592 35.997C20.592 35.997 20.592 35.997 20.592 35.997ZM5.39296 3C4.98596 3 4.64596 3.082 4.35296 3.248C3.83796 3.542 3.47896 4.129 3.23296 4.98C2.30496 8.188 3.51396 13.979 7.63696 21.035C12.178 28.804 17.7 32.997 20.591 32.997C20.591 32.997 20.591 32.997 20.591 32.997C20.999 32.997 21.339 32.915 21.632 32.748C22.146 32.456 22.515 31.872 22.75 31.02C23.617 27.874 22.469 22.02 18.345 14.965C13.804 7.194 8.28296 3 5.39296 3C5.39296 3 5.39296 3 5.39296 3Z" fill="#4E7AB5" transform="translate(7.007 2)" />
    <path id="Path" d="M7 3.5C7 5.435 5.435 7 3.5 7C1.565 7 0 5.435 0 3.5C0 1.565 1.565 0 3.5 0C5.435 0 7 1.565 7 3.5C7 3.5 7 3.5 7 3.5Z" fill="#8BB7F0" transform="translate(16.5 16.5)" />
    <path id="Shape" d="M4 8C1.794 8 0 6.206 0 4C0 1.794 1.794 0 4 0C6.206 0 8 1.794 8 4C8 6.206 6.206 8 4 8C4 8 4 8 4 8ZM4 1C2.346 1 1 2.346 1 4C1 5.654 2.346 7 4 7C5.654 7 7 5.654 7 4C7 2.346 5.654 1 4 1C4 1 4 1 4 1Z" fill="#4E7AB5" transform="translate(16 16)" />
    <path id="Shape" d="M19 16.136C8.346 16.136 0 12.592 0 8.068C0 3.544 8.346 0 19 0C29.654 0 38 3.544 38 8.068C38 12.592 29.654 16.136 19 16.136C19 16.136 19 16.136 19 16.136ZM19 1C9.243 1 1 4.237 1 8.068C1 11.899 9.243 15.136 19 15.136C28.757 15.136 37 11.9 37 8.068C37 4.236 28.757 1 19 1C19 1 19 1 19 1Z" fill="#8BB7F0" transform="translate(1 11.932)" />
    <path id="Shape" d="M4.40374 33.997C4.40274 33.997 4.40374 33.997 4.40374 33.997C3.64874 33.997 2.96574 33.825 2.37074 33.486C1.37474 32.917 0.681739 31.924 0.308739 30.534C-0.772261 26.497 1.03774 19.596 4.91874 12.953C9.38074 5.327 15.4177 0 19.6007 0C20.3547 0 21.0387 0.172 21.6327 0.511C22.6277 1.079 23.3207 2.071 23.6937 3.459C24.7747 7.496 22.9647 14.397 19.0817 21.041C14.6227 28.669 8.58774 33.997 4.40374 33.997C4.40374 33.997 4.40374 33.997 4.40374 33.997ZM19.6007 1C15.8167 1 10.0057 6.239 5.78374 13.458C2.08874 19.783 0.276739 26.541 1.27574 30.276C1.57674 31.399 2.11174 32.186 2.86774 32.618C3.30874 32.869 3.82474 32.997 4.40274 32.997C8.18774 32.997 13.9977 27.757 18.2167 20.536C21.9137 14.21 23.7267 7.451 22.7257 3.718C22.4257 2.597 21.8907 1.81 21.1357 1.38C20.6947 1.128 20.1787 1 19.6007 1C19.6007 1 19.6007 1 19.6007 1Z" fill="#8BB7F0" transform="translate(7.998 3.003)" />
    <path id="Shape" d="M19.5998 33.997C19.5998 33.997 19.5998 33.997 19.5998 33.997C15.4128 33.996 9.37583 28.67 4.91883 21.044C1.03683 14.401 -0.772171 7.5 0.308828 3.463C0.680828 2.073 1.37383 1.08 2.37083 0.511C2.96483 0.172 3.64783 0 4.40083 0C8.58582 0 14.6218 5.328 19.0798 12.956C22.9628 19.598 24.7718 26.499 23.6898 30.538C23.3188 31.927 22.6258 32.919 21.6308 33.486C21.0368 33.825 20.3538 33.997 19.5998 33.997C19.5998 33.997 19.5998 33.997 19.5998 33.997ZM4.40083 1C3.82383 1 3.30683 1.128 2.86583 1.379C2.10983 1.811 1.57483 2.598 1.27383 3.721C0.274828 7.455 2.08683 14.214 5.78183 20.539C10.0008 27.757 15.8128 32.996 19.5998 32.997C19.5998 32.997 19.5998 32.997 19.5998 32.997C20.1778 32.997 20.6948 32.869 21.1358 32.617C21.8898 32.187 22.4248 31.4 22.7248 30.279C23.7248 26.544 21.9128 19.785 18.2168 13.461C13.9968 6.241 8.18783 1 4.40083 1C4.40083 1 4.40083 1 4.40083 1Z" fill="#8BB7F0" transform="translate(7.999 3)" />
  </g>
</svg>