<?xml version="1.0" encoding="utf-8"?>
<svg width="48" height="48" viewBox="0 0 48 48" fill="none" xmlns="http://www.w3.org/2000/svg">
  <g>
    <rect width="48" height="48" />
    <path id="Shape" d="M13.422 0L13.49 10L14.99 10L14.99 0L13.422 0ZM31.99 0L31.99 10.005C31.99 10.005 33.795 10.005 33.795 10.005C33.795 10.005 33.81 6.396 33.83 6.397C33.849 6.398 36.52 10.14 36.546 10.13C36.573 10.12 38.145 9.554 38.145 9.54C38.145 9.526 35.461 6.099 35.461 6.092C35.461 6.086 37.712 3.583 37.692 3.563C37.632 3.503 36.411 2.977 36.378 2.997C36.36 3.008 33.796 5.793 33.796 5.793C33.796 5.793 33.796 0 33.796 0L31.99 0L31.99 0ZM2.089 3.05C1.438 3.187 0.83 3.602 0.58 4.081C0.35 4.521 0.353 5.124 0.587 5.572C0.747 5.877 1.212 6.307 1.935 6.818C2.717 7.37 3.013 7.65 3.088 7.91C3.199 8.295 3.028 8.662 2.654 8.841C2.467 8.93 2.384 8.942 2.051 8.927C1.618 8.907 1.322 8.795 0.879 8.481C0.739 8.382 0.61 8.314 0.594 8.329C0.578 8.345 0.439 8.553 0.283 8.795C0.283 8.795 0 9.23 0 9.23C0 9.23 0.109 9.311 0.109 9.311C0.169 9.356 0.357 9.469 0.531 9.566C1.718 10.226 3.475 10.121 4.366 9.337C4.841 8.919 5.063 8.312 4.968 7.69C4.879 7.108 4.559 6.725 3.551 5.995C2.76 5.422 2.385 5.106 2.298 4.936C2.131 4.61 2.249 4.293 2.605 4.109C2.783 4.017 2.856 4.007 3.213 4.022C3.56 4.037 3.666 4.063 3.954 4.201C3.954 4.201 4.289 4.362 4.289 4.362C4.289 4.362 4.552 3.952 4.552 3.952C4.696 3.728 4.804 3.526 4.791 3.507C4.743 3.436 4.193 3.208 3.85 3.116C3.392 2.995 2.511 2.961 2.089 3.05C2.089 3.05 2.089 3.05 2.089 3.05ZM10.021 3.935C10.809 4.304 11.233 5.463 11.062 6.787C11.002 7.254 10.835 7.819 10.679 8.083C10.52 8.351 10.216 8.643 9.974 8.758C9.53 8.97 8.867 8.888 8.451 8.571C7.874 8.129 7.558 7.047 7.679 5.922C7.79 4.89 8.162 4.238 8.812 3.936C9.146 3.781 9.69 3.781 10.021 3.935C10.021 3.935 10.021 3.935 10.021 3.935ZM9.303 2.784C8.831 2.89 8.453 3.103 8.049 3.489C8.049 3.489 7.683 3.839 7.683 3.839L7.683 3L6.804 3L5.99 3L5.99 8L5.99 13L7.683 13L7.683 8.92C7.683 8.92 8.007 9.239 8.007 9.239C8.599 9.822 9.294 10.053 10.108 9.94C10.64 9.866 11.012 9.73 11.408 9.465C12.519 8.722 13.129 7.244 12.962 5.694C12.804 4.227 12.05 3.21 10.834 2.823C10.521 2.724 9.669 2.702 9.303 2.784C9.303 2.784 9.303 2.784 9.303 2.784ZM16.248 3C16.248 3 16.303 8.284 16.339 8.438C16.475 9.021 16.864 9.575 17.303 9.812C17.706 10.03 18.03 10.099 18.636 10.096C19.497 10.092 20.022 9.885 20.663 9.296C20.663 9.296 20.99 9 20.99 9L20.99 10L22.732 10L22.709 3C22.709 3 20.99 3 20.99 3C20.99 3 21.015 7.347 20.99 7.5C20.89 8.111 20.417 8.609 19.937 8.77C19.65 8.866 19.151 8.944 18.851 8.897C18.539 8.848 18.023 8.507 17.99 8C17.99 8 17.99 3.023 17.99 3.023L16.248 3C16.248 3 16.248 3 16.248 3ZM30.732 10C30.732 10 30.677 4.716 30.641 4.562C30.505 3.979 30.116 3.425 29.677 3.188C29.274 2.97 28.95 2.901 28.344 2.904C27.483 2.908 26.958 3.115 26.317 3.704C26.317 3.704 25.99 4 25.99 4L25.99 3L24.248 3L24.271 10C24.271 10 25.99 10 25.99 10C25.99 10 25.965 5.653 25.99 5.5C26.09 4.889 26.563 4.391 27.043 4.23C27.33 4.134 27.704 4.06 28.129 4.103C28.556 4.147 29.021 4.535 28.99 5C28.99 5 28.99 9.977 28.99 9.977L30.732 10C30.732 10 30.732 10 30.732 10Z" fill="#FFFFFF" fill-rule="evenodd" transform="translate(0.01 18)" />
    <path id="Path" d="M0 0L0 1.5L6 3.5L0 6.101L0 7.5L7 4.5L7 2.5L0 0Z" fill="#77B539" fill-rule="evenodd" transform="translate(40 20.5)" />
  </g>
</svg>