<?xml version="1.0" encoding="utf-8"?>
<svg width="48" height="48" viewBox="0 0 48 48" fill="none" xmlns="http://www.w3.org/2000/svg">
  <defs>
    <linearGradient id="gradient_1" gradientUnits="userSpaceOnUse" x1="21.176" y1="-1.367" x2="25.018" y2="26.948">
      <stop offset="0" stop-color="#00C1E0" />
      <stop offset="1" stop-color="#009BB8" />
    </linearGradient>
  </defs>
  <g>
    <rect width="48" height="48" />
    <path id="Shape" d="M23.3149 0C17.7259 0 13.9679 2.439 12.0389 7.318C11.8389 7.823 12.4559 8.238 12.8549 7.869C14.8899 5.987 17.1769 5.364 19.7149 5.998C21.5409 6.454 22.8459 7.779 24.2909 9.245C26.6429 11.632 29.3659 14.396 35.3149 14.396C40.9039 14.396 44.6629 11.956 46.5909 7.077C46.7909 6.572 46.1739 6.157 45.7749 6.526C43.7399 8.408 41.4529 9.032 38.9149 8.398C37.0899 7.942 35.7849 6.617 34.3399 5.151C31.9869 2.763 29.2629 0 23.3149 0C23.3149 0 23.3149 0 23.3149 0C23.3149 0 23.3149 0 23.3149 0ZM11.3149 14.396C5.72588 14.396 1.96688 16.836 0.0388803 21.715C-0.16112 22.22 0.45588 22.635 0.85488 22.266C2.88988 20.384 5.17688 19.76 7.71488 20.395C9.53988 20.852 10.8449 22.176 12.2899 23.641C14.6429 26.029 17.3669 28.793 23.3149 28.793C28.9039 28.793 32.6629 26.353 34.5909 21.474C34.7909 20.969 34.1739 20.554 33.7749 20.923C31.7399 22.805 29.4529 23.429 26.9149 22.794C25.0889 22.338 23.7839 21.013 22.3389 19.548C19.9869 17.16 17.2639 14.396 11.3149 14.396C11.3149 14.396 11.3149 14.396 11.3149 14.396C11.3149 14.396 11.3149 14.396 11.3149 14.396Z" fill="url(#gradient_1)" transform="translate(0.685 9.604)" />
  </g>
</svg>