<?xml version="1.0" encoding="utf-8"?>
<svg width="64" height="64" viewBox="0 0 64 64" fill="none" xmlns="http://www.w3.org/2000/svg">
  <defs>
    <linearGradient id="gradient_1" gradientUnits="userSpaceOnUse" x1="26.79" y1="54.11" x2="26.79" y2="0">
      <stop offset="0" stop-color="#E6ABFF" />
      <stop offset="1" stop-color="#6DC7FF" />
    </linearGradient>
    <linearGradient id="gradient_2" gradientUnits="userSpaceOnUse" x1="27.793" y1="56.113" x2="27.793" y2="-0.001">
      <stop offset="0" stop-color="#C822FF" />
      <stop offset="1" stop-color="#1A6DFF" />
    </linearGradient>
  </defs>
  <g>
    <rect width="64" height="64" />
    <path id="Shape" d="M12.37 3.56L3.09 12.51L0 0L12.37 3.56L12.37 3.56ZM3.59 14.55L6.4 25.94L14.87 17.79L3.59 14.55L3.59 14.55ZM15.43 15.87L12.94 5.79L5.46 13L15.43 15.87L15.43 15.87ZM6.96 28.19L9.73 39.39L18.04 31.38L6.96 28.19L6.96 28.19ZM8.62 26.58L18.81 29.52L16.27 19.23L8.62 26.58L8.62 26.58ZM22.07 42.75L19.58 32.67L12.09 39.89L22.07 42.75L22.07 42.75ZM13.36 54.11L22.79 45.04L10.23 41.43L13.36 54.11L13.36 54.11ZM25.68 7.4L14.62 4.21L17.37 15.38L25.68 7.4L25.68 7.4ZM18.2 18.73L20.69 28.81L28.18 21.59L18.2 18.73L18.2 18.73ZM28.7 19.66L26.22 9.64L18.77 16.81L28.7 19.66L28.7 19.66ZM29.54 23.06L21.91 30.41L32.07 33.34L29.54 23.06L29.54 23.06ZM24.33 43.56L32.63 35.58L21.58 32.4L24.33 43.56L24.33 43.56ZM38.98 11.23L27.89 8.03L30.66 19.25L38.98 11.23L38.98 11.23ZM42.04 23.53L39.55 13.45L32.06 20.67L42.04 23.53L42.04 23.53ZM34.29 33.98L42.77 25.82L31.48 22.58L34.29 33.98L34.29 33.98ZM41.22 11.87L44.3 24.36L53.58 15.43L41.22 11.87L41.22 11.87Z" fill="url(#gradient_1)" transform="translate(7.01 6)" />
    <path id="Shape" d="M14.3674 56.1133C14.2744 56.1133 14.1804 56.1003 14.0904 56.0733C13.7464 55.9743 13.4834 55.6993 13.3974 55.3523C13.3974 55.3523 0.0293684 1.23929 0.0293684 1.23929C-0.0566316 0.892292 0.0493684 0.527292 0.306368 0.279292C0.563368 0.031292 0.936368 -0.0597076 1.27637 0.0392923C1.27637 0.0392923 54.8624 15.4673 54.8624 15.4673C55.2064 15.5663 55.4704 15.8413 55.5564 16.1883C55.6424 16.5353 55.5364 16.9013 55.2794 17.1493C55.2794 17.1493 15.0604 55.8343 15.0604 55.8343C14.8714 56.0163 14.6224 56.1133 14.3674 56.1133C14.3674 56.1133 14.3674 56.1133 14.3674 56.1133ZM2.38637 2.43829L14.9234 53.1913L52.6434 16.9083L2.38637 2.43829L2.38637 2.43829Z" fill="url(#gradient_2)" transform="translate(6.007 5.001)" />
  </g>
</svg>