<?xml version="1.0" encoding="utf-8"?>
<svg width="48" height="48" viewBox="0 0 48 48" fill="none" xmlns="http://www.w3.org/2000/svg">
  <g>
    <rect width="48" height="48" />
    <rect id="Rectangle" width="36" height="36" fill="#1976D2" fill-rule="evenodd" transform="translate(6 6)" />
    <path id="Polygon" d="M13.263 0L0 0L0 3.264L4.757 3.264L4.757 18L8.526 18L8.526 3.264L13.263 3.264L13.263 0Z" fill="#FFFFFF" fill-rule="evenodd" transform="translate(14.227 22)" />
    <path id="Path" d="M10.526 4.07544C10.526 4.07544 8.739 2.88344 6.719 2.88344C4.699 2.88344 3.972 3.84344 3.972 4.86944C3.972 7.51744 11.353 7.25244 11.353 12.5814C11.353 20.7904 0.098999 17.1494 0.098999 17.1494C0.098999 17.1494 0.098999 13.2114 0.098999 13.2114C0.098999 13.2114 2.251 14.8334 4.832 14.8334C7.413 14.8334 7.315 13.1454 7.315 12.9134C7.315 10.4644 0 10.4644 0 5.03544C0 -2.34556 10.658 0.566444 10.658 0.566444C10.658 0.566444 10.526 4.07544 10.526 4.07544C10.526 4.07544 10.526 4.07544 10.526 4.07544Z" fill="#FFFFFF" transform="translate(28.668 22.009)" />
  </g>
</svg>