<?xml version="1.0" encoding="utf-8"?>
<svg width="50" height="50" viewBox="0 0 50 50" fill="none" xmlns="http://www.w3.org/2000/svg">
  <g>
    <rect width="50" height="50" />
    <path id="Shape" d="M41.0825 22.208C41.0825 22.208 43.9028 17.4306 43.9028 17.4306C44.0161 17.1924 44.0317 16.9189 43.9458 16.6728C43.9458 16.6728 38.3599 0.672829 38.3599 0.672829C38.188 0.184548 37.6763 -0.0927956 37.1802 0.0282984C37.1802 0.0282984 20.7622 4.0283 20.7622 4.0283C20.4497 4.10642 20.1919 4.32908 20.0708 4.62986C20.0708 4.62986 18.3247 9.00095 18.3247 9.00095C18.3247 9.00095 13.0005 9.00095 13.0005 9.00095C12.7231 9.00095 12.4536 9.11814 12.2661 9.32127C12.2661 9.32127 0.266103 22.3213 0.266103 22.3213C-0.104991 22.7236 -0.085459 23.3486 0.309072 23.7236C0.309072 23.7236 12.895 35.7236 12.895 35.7236C13.0786 35.9033 13.3286 36.001 13.5825 36.001C13.5825 36.001 19.3208 36.001 19.3208 36.001C19.3208 36.001 21.0708 40.372 21.0708 40.372C21.1997 40.6963 21.4888 40.9267 21.8286 40.9853C21.8286 40.9853 39.2895 43.9853 39.2895 43.9853C39.3442 43.997 39.4028 44.001 39.4575 44.001C39.9224 44.001 40.3325 43.6806 40.4341 43.2158C40.4341 43.2158 43.977 26.9853 43.977 26.9853C44.0317 26.7353 43.9888 26.4736 43.852 26.251C43.852 26.251 41.0825 22.208 41.0825 22.208ZM18.3247 9.00095L32.4184 6.41892L25.0005 21.001L8.16845 21.001L18.3247 9.00095ZM19.3247 36.001L8.16845 25.001L25.0005 25.001L33.7505 38.1689L19.3247 36.001ZM37.3872 35.8994L29.0005 23.001L36.3325 8.41892L41.0825 22.2119L37.3872 35.8994Z" fill="#FFFFFF" transform="translate(3 2.999)" />
  </g>
</svg>