<?xml version="1.0" encoding="utf-8"?>
<svg width="46" height="46" viewBox="0 0 46 46" fill="none" xmlns="http://www.w3.org/2000/svg">
  <path id="Shape" d="M23 0C10.3086 0 0 10.3086 0 23C0 35.6914 10.3086 46 23 46C35.6914 46 46 35.6914 46 23C46 10.3086 35.6914 0 23 0C23 0 23 0 23 0ZM23 2C34.6094 2 44 11.3906 44 23C44 34.6094 34.6094 44 23 44C11.3906 44 2 34.6094 2 23C2 11.3906 11.3906 2 23 2C23 2 23 2 23 2ZM21.6211 8.5C13.7734 10.3672 4.65625 19.9063 5.54297 27.125C9.8125 19.5938 12.7031 18.5703 13.4883 18.5703C14.2773 18.5703 14.7031 18.9961 14.7031 19.9063C14.7031 19.9063 14.7031 31.1289 14.7031 31.1289C14.7031 32.5234 13.3555 32.3555 12.4609 32.2188C15.7734 37.1602 23.5 37.5 23.5 37.5C23.5 37.5 26.9609 33.7383 26.9609 33.7383C26.9609 33.7383 30.2969 36.5898 30.2969 36.5898C35.3789 33.3008 38.7344 27.7266 38.7344 26.8828C36.2188 29.6563 34.0586 30.1602 33.5742 30.1602C33.0898 30.1602 32.3008 30.1016 32.3008 29.4336C32.3008 29.4336 32.3008 16.1211 32.3008 16.1211C32.3008 14.9648 35.4805 11.1719 36.4844 9.89453C29.8711 11.6289 27.3242 14.9336 27.3242 14.9336C27.3242 14.9336 26.4336 14.2656 24.4727 14.2656C25.207 14.8906 26.2344 16.0234 26.2344 17.3594C26.2344 17.3594 26.2344 29.5508 26.2344 29.5508C26.2344 29.5508 24.0469 31.1289 22.7734 31.1289C21.5 31.1289 20.5898 30.5859 20.5898 29.6133C20.5898 29.6133 20.5898 15.0508 20.5898 15.0508C20.5898 15.0508 18.7695 16.3281 18.7695 12.5625C18.7695 10.6836 21.6211 8.5 21.6211 8.5C21.6211 8.5 21.6211 8.5 21.6211 8.5Z" fill="#FFFFFF" />
</svg>